<svg version="1.2" baseProfile="tiny" width="16.93mm" height="16.93mm" viewBox="0 0 1693 1693" preserveAspectRatio="xMidYMid" fill-rule="evenodd" clip-path="url(#a)" xmlns="http://www.w3.org/2000/svg"><defs class="ClipPathGroup"><clipPath id="a"><path d="M0 0h1693v1693H0z"/></clipPath></defs><defs class="EmbeddedBulletChars"><path d="M.283-.557l.285.278L.283 0l-.285-.28.285-.277z"/><path d="M.004-.55h.55V0h-.55v-.55z"/><path d="M.085 0l.21-.36-.21-.363.626.362L.086 0zm174.493-.36l-.512-.297.17.296h.342z"/><path d="M.984-.36L.624 0H.35l.265-.265h-.53v-.192h.53L.35-.723h.272l.362.362z"/><path d="M0 0c-.003-.007-.008-.013-.012-.018l.186-.26-.07-.188c0-.012.007-.018.02-.018.005 0 .01 0 .017.002.01-.002.022-.006.033-.012l.013.006.054.123.137-.147.03.012.013-.012c.01.005.02.012.03.02-.017.034-.042.07-.074.11 0 0-.03.032-.086.097l.088.176c0 .014-.01.028-.03.042l.007.01c-.005.014-.014.02-.027.02-.015 0-.05-.05-.105-.148L.08.037C.07.054.054.062.035.062c-.02 0-.03-.008-.03-.025C0 .033-.002.025-.002.017V0z"/><path d="M.14.016c-.05 0-.086-.03-.104-.092C.026-.11.02-.163.02-.23c0-.038.007-.07.02-.098C.057-.363.083-.38.117-.38c.026 0 .043.015.052.046l.01.086c.004.03.014.047.03.048l.358-.345C.573-.55.584-.553.6-.553c.02 0 .03.007.03.022v.06c0 .016-.004.03-.014.04l-.4.407C.19.003.166.017.14.017z"/><path d="M.397 0C.31 0 .24-.026.187-.08.135-.13.11-.2.11-.29c0-.087.025-.157.077-.21.052-.052.122-.078.21-.078.087 0 .158.026.21.078.054.053.08.123.08.21 0 .09-.026.16-.08.21C.556-.025.485 0 .398 0z"/><path d="M.17-.223C.132-.223.1-.236.075-.26.05-.287.036-.318.036-.354S.05-.42.076-.445C.102-.47.133-.483.17-.483c.035 0 .064.013.09.04.024.024.037.054.037.09 0 .037-.012.067-.037.092-.025.024-.055.037-.09.037z"/><path d="M-.002-.224h.556v-.072h-.556v.072z"/></defs><g class="Page" clip-path="url(#a)"><path fill="#d43f3a" d="M847 141c-390 0-706 316-706 706s316 706 706 706 706-316 706-706-316-706-706-706zm71 1059H776v-141h142v141zm0-282H776V494h142v424z" class="com.sun.star.drawing.ClosedBezierShape"/></g></svg>